{"title":"Expiration (2011) WEBRip","uid":8282437,"size":1531474257,"categoryP":"video","categoryS":"movies","magnet":"?xt=urn:btih:a5869154c7d6fef23fdadbb4e77aab2a7740264b&amp;dn=Expiration+%282011%29+WEBRip&amp;tr=udp%3A%2F%2Ftracker.openbittorrent.com%3A80&amp;tr=udp%3A%2F%2Fopen.demonii.com%3A1337&amp;tr=udp%3A%2F%2Ftracker.coppersurfer.tk%3A6969&amp;tr=udp%3A%2F%2Fexodus.desync.com%3A6969","seeders":1,"leechers":0,"uploader":"RadioResearch","files":3,"time":1363873541,"description":"*******************************************************************************\n                           Expiration (2011) WEBRip\n*******************************************************************************\n\n-------------------------------------------------------------------------------\n                              General Information\n-------------------------------------------------------------------------------\nType.................: Movie\n\n\n\nVideo Format.........: MKV\nVideo Bitrate........: 2181\nResolution...........: 640 x 360\nColor................: 8 bit\nFPS..................: 29.970\nSource...............: WEB 16:9\nOriginal Format......: NTSC\nGenre................: Horror\nIMDb Rating..........: 5.9\nMovie Information....: http://www.imdb.com/title/tt2120057/\n\n-------------------------------------------------------------------------------\n                               Post Information\n-------------------------------------------------------------------------------\nPosted by............: RadioResearch\nPosted on............: 3/21/2013\n\n-------------------------------------------------------------------------------\n                                 Release Notes\n-------------------------------------------------------------------------------\nSEEDBOX SUPPORTED!!\n\nEveryone has an Expiration Date. Four applicants, with their own hidden agendas, \nare accepted by a mysterious corporation to participate in a medical experiment \nat an isolated testing facility. With no instructions and no supplies, the human \nlab rats must fend for themselves and figure out what part of the experiment \neach one is playing. When the corporation becomes aware that a pregnant intruder \nhas infiltrated the facility, they send in armored guards to clean up the mess. \nHowever, loyalties are tested when the guards learn the truth about the \nexperiments and begin to turn on the corporation. Hidden truths about the \ndifferent players and why they all signed up for the tests are revealed as their \nsituation becomes increasingly dire.\n\nSouth Africa's best entry into the horror/sci-fi world since District 9!!\n\nEnjoy!\n\nRadioResearch\n\nGeneral\nComplete name                            : G:Expiration (2011)Expiration.mkv\nFormat                                   : Matroska\nFormat version                           : Version 1\nFile size                                : 1.43 GiB\nDuration                                 : 1h 33mn\nOverall bit rate                         : 2 181 Kbps\nEncoded date                             : UTC 2013-03-20 15:43:32\nWriting library                          : WonderShare Matroska Muxer\n\nVideo\nID                                       : 1\nFormat                                   : AVC\nFormat/Info                              : Advanced Video Codec\nFormat profile                           : &lt;a class=&quot;__cf_email__&quot; href=&quot;/cdn-cgi/l/email-protection&quot; data-cfemail=&quot;387a594b5d5451565d78740b1608&quot;&gt;[email&amp;#160;protected]&lt;/a&gt;&lt;script cf-hash='f9e31' type=&quot;text/javascript&quot;&gt;\n/* &lt;![CDATA[ */!function(){try{var t=&quot;currentScript&quot;in document?document.currentScript:function(){for(var t=document.getElementsByTagName(&quot;script&quot;),e=t.length;e--;)if(t[e].getAttribute(&quot;cf-hash&quot;))return t[e]}();if(t&amp;&amp;t.previousSibling){var e,r,n,i,c=t.previousSibling,a=c.getAttribute(&quot;data-cfemail&quot;);if(a){for(e=&quot;&quot;,r=parseInt(a.substr(0,2),16),n=2;a.length-n;n+=2)i=parseInt(a.substr(n,2),16)^r,e+=String.fromCharCode(i);e=document.createTextNode(e),c.parentNode.replaceChild(e,c)}}}catch(u){}}();/* ]]&gt; */&lt;/script&gt;\nFormat settings, CABAC                   : No\nFormat settings, ReFrames                : 1 frame\nCodec ID                                 : V_MPEG4/ISO/AVC\nDuration                                 : 1h 33mn\nBit rate                                 : 2 010 Kbps\nWidth                                    : 640 pixels\nHeight                                   : 360 pixels\nDisplay aspect ratio                     : 16:9\nFrame rate mode                          : Variable\nFrame rate                               : 29.970 fps\nOriginal frame rate                      : 29.000 fps\nColor space                              : YUV\nChroma subsampling                       : 4:2:0\nBit depth                                : 8 bits\nScan type                                : Progressive\nBits/(Pixel*Frame)                       : 0.291\nStream size                              : 1.31 GiB (92%)\nDefault                                  : Yes\nForced                                   : No\n\nAudio\nID                                       : 2\nFormat                                   : AC-3\nFormat/Info                              : Audio Coding 3\nMode extension                           : CM (complete main)\nFormat settings, Endianness              : Big\nCodec ID                                 : A_AC3\nDuration                                 : 1h 33mn\nBit rate mode                            : Constant\nBit rate                                 : 128 Kbps\nChannel(s)                               : 2 channels\nChannel positions                        : Front: L R\nSampling rate                            : 44.1 KHz\nBit depth                                : 16 bits\nCompression mode                         : Lossy\nStream size                              : 85.7 MiB (6%)\nDefault                                  : Yes\nForced                                   : No\n\n\n\n\n-------------------------------------------------------------------------------\nGenerated with Cool NFO Creator - http://fly.to/coolbeans\n-------------------------------------------------------------------------------\n","torrent":{"xt":"urn:btih:a5869154c7d6fef23fdadbb4e77aab2a7740264b","amp;dn":"Expiration+%282011%29+WEBRip","amp;tr":["udp%3A%2F%2Ftracker.openbittorrent.com%3A80","udp%3A%2F%2Fopen.demonii.com%3A1337","udp%3A%2F%2Ftracker.coppersurfer.tk%3A6969","udp%3A%2F%2Fexodus.desync.com%3A6969"],"infoHash":"a5869154c7d6fef23fdadbb4e77aab2a7740264b","infoHashBuffer":{"type":"Buffer","data":[165,134,145,84,199,214,254,242,63,218,219,180,231,122,171,42,119,64,38,75]},"announce":[],"urlList":[]}}